<svg width="1200" height="630" xmlns="http://www.w3.org/2000/svg">
  <rect width="1200" height="630" fill="#050505"/>
  <rect x="0" y="620" width="1200" height="10" fill="#818cf8"/>
  <!-- Name -->
  <text x="80" y="220" font-family="system-ui, sans-serif" font-size="72" font-weight="800" fill="#f0f0f0" letter-spacing="-2">VIJAYA SIVANJAN</text>
  <text x="80" y="300" font-family="system-ui, sans-serif" font-size="72" font-weight="800" fill="#f0f0f0" letter-spacing="-2">KOMMURI</text>
  <!-- Underline -->
  <rect x="80" y="316" width="360" height="4" rx="2" fill="#818cf8"/>
  <!-- Role -->
  <text x="80" y="380" font-family="monospace" font-size="20" fill="#888">AI/ML RESEARCHER &amp; ENGINEER · IEEE SPICES 2026</text>
  <!-- Stats -->
  <text x="80" y="460" font-family="monospace" font-size="36" font-weight="700" fill="#818cf8">0.967</text>
  <text x="80" y="485" font-family="monospace" font-size="12" fill="#555" letter-spacing="2">AUC-ROC</text>
  <text x="280" y="460" font-family="monospace" font-size="36" font-weight="700" fill="#818cf8">138</text>
  <text x="280" y="485" font-family="monospace" font-size="12" fill="#555" letter-spacing="2">FEATURES</text>
  <text x="440" y="460" font-family="monospace" font-size="36" font-weight="700" fill="#818cf8">2</text>
  <text x="440" y="485" font-family="monospace" font-size="12" fill="#555" letter-spacing="2">PAPERS</text>
  <text x="540" y="460" font-family="monospace" font-size="36" font-weight="700" fill="#818cf8">695</text>
  <text x="540" y="485" font-family="monospace" font-size="12" fill="#555" letter-spacing="2">TESTS</text>
  <!-- URL -->
  <text x="80" y="570" font-family="monospace" font-size="16" fill="#555">darthaether.github.io</text>
  <!-- Decorative dots -->
  <circle cx="1050" cy="150" r="3" fill="#818cf8" opacity="0.3"/>
  <circle cx="1080" cy="200" r="2" fill="#818cf8" opacity="0.2"/>
  <circle cx="1020" cy="250" r="4" fill="#818cf8" opacity="0.15"/>
  <circle cx="1100" cy="300" r="2.5" fill="#818cf8" opacity="0.25"/>
  <circle cx="1060" cy="350" r="3" fill="#818cf8" opacity="0.2"/>
  <circle cx="1030" cy="400" r="2" fill="#818cf8" opacity="0.15"/>
  <circle cx="1090" cy="180" r="1.5" fill="#a5b4fc" opacity="0.3"/>
  <circle cx="1040" cy="320" r="2" fill="#a5b4fc" opacity="0.2"/>
  <!-- Connection lines -->
  <line x1="1050" y1="150" x2="1080" y2="200" stroke="#818cf8" stroke-width="0.5" opacity="0.1"/>
  <line x1="1080" y1="200" x2="1020" y2="250" stroke="#818cf8" stroke-width="0.5" opacity="0.1"/>
  <line x1="1020" y1="250" x2="1100" y2="300" stroke="#818cf8" stroke-width="0.5" opacity="0.1"/>
  <line x1="1100" y1="300" x2="1060" y2="350" stroke="#818cf8" stroke-width="0.5" opacity="0.1"/>
</svg>